<svg width="748" height="601" viewBox="0 0 748 601" fill="none" xmlns="http://www.w3.org/2000/svg">
<rect width="748" height="601" fill="#E5E5E5"/>
<rect width="748" height="601" fill="white"/>
<ellipse cx="226" cy="324.5" rx="20" ry="19.5" fill="#C4C4C4"/>
<ellipse cx="312" cy="356.5" rx="20" ry="19.5" fill="#C4C4C4"/>
<ellipse cx="396.5" cy="395" rx="10.5" ry="10" fill="#C4C4C4"/>
<ellipse cx="396.5" cy="395" rx="10.5" ry="10" fill="#C4C4C4"/>
<ellipse cx="396.5" cy="395" rx="10.5" ry="10" fill="#C4C4C4"/>
<path d="M479 341C479 346.523 477.299 351 471.5 351C465.701 351 461 346.523 461 341C461 335.477 465.701 331 471.5 331C477.299 331 479 335.477 479 341Z" fill="#C4C4C4"/>
<ellipse cx="481.5" cy="197" rx="10.5" ry="10" fill="#C4C4C4"/>
<ellipse cx="427.5" cy="390" rx="10.5" ry="10" fill="#C4C4C4"/>
<ellipse cx="478.5" cy="276" rx="10.5" ry="10" fill="#C4C4C4"/>
<ellipse cx="478.5" cy="276" rx="10.5" ry="10" fill="#C4C4C4"/>
<ellipse cx="478.5" cy="276" rx="10.5" ry="10" fill="#C4C4C4"/>
<ellipse cx="478.5" cy="276" rx="10.5" ry="10" fill="#C4C4C4"/>
<ellipse cx="478.5" cy="276" rx="10.5" ry="10" fill="#C4C4C4"/>
<ellipse cx="478.5" cy="276" rx="10.5" ry="10" fill="#C4C4C4"/>
<ellipse cx="439.5" cy="160" rx="10.5" ry="10" fill="#C4C4C4"/>
<ellipse cx="514.5" cy="286" rx="10.5" ry="10" fill="#C4C4C4"/>
<ellipse cx="288.5" cy="201" rx="10.5" ry="10" fill="#C4C4C4"/>
<ellipse cx="406.5" cy="172" rx="10.5" ry="10" fill="#C4C4C4"/>
<ellipse cx="457.5" cy="226" rx="10.5" ry="10" fill="#C4C4C4"/>
<ellipse cx="459.5" cy="370" rx="10.5" ry="10" fill="#C4C4C4"/>
<ellipse cx="258.5" cy="236" rx="10.5" ry="10" fill="#C4C4C4"/>
<ellipse cx="249.5" cy="298" rx="10.5" ry="10" fill="#C4C4C4"/>
<ellipse cx="385.5" cy="420" rx="10.5" ry="10" transform="rotate(23.9107 385.5 420)" fill="red"/>
<ellipse cx="439.5" cy="423" rx="10.5" ry="10" fill="#C4C4C4"/>
<ellipse cx="329" cy="409.5" rx="20" ry="19.5" fill="#C4C4C4"/>
<ellipse cx="440" cy="312.5" rx="20" ry="19.5" fill="#C4C4C4"/>
<ellipse cx="329" cy="209.5" rx="20" ry="19.5" fill="#C4C4C4"/>
<ellipse cx="292" cy="236.5" rx="20" ry="19.5" fill="#C4C4C4"/>
<circle cx="283" cy="389" r="16" fill="#C4C4C4"/>
<ellipse cx="420" cy="350.5" rx="20" ry="19.5" fill="#C4C4C4"/>
<ellipse cx="502" cy="240.5" rx="20" ry="19.5" fill="#C4C4C4"/>
<ellipse cx="420" cy="229.5" rx="20" ry="19.5" fill="#C4C4C4"/>
<circle cx="528.5" cy="338.5" r="14.5" fill="#C4C4C4"/>
<circle cx="503.5" cy="369.5" r="14.5" fill="white"/>
<circle cx="474.5" cy="403.5" r="14.5" fill="#C4C4C4"/>
<circle cx="354.5" cy="444.5" r="14.5" fill="#C4C4C4"/>
<circle cx="284.5" cy="428.5" r="14.5" fill="#C4C4C4"/>
<circle cx="239.5" cy="397.5" r="14.5" fill="#C4C4C4"/>
<circle cx="439.5" cy="191.5" r="14.5" fill="#C4C4C4"/>
<ellipse cx="440" cy="268.5" rx="20" ry="19.5" fill="#C4C4C4"/>
<ellipse cx="279" cy="280.5" rx="20" ry="19.5" fill="#C4C4C4"/>
<ellipse cx="304" cy="170.5" rx="20" ry="19.5" fill="#C4C4C4"/>
<ellipse cx="366" cy="369.5" rx="20" ry="19.5" fill="#C4C4C4"/>
<ellipse cx="250" cy="201.5" rx="20" ry="19.5" fill="#C4C4C4"/>
<ellipse cx="380" cy="209.5" rx="20" ry="19.5" fill="#C4C4C4"/>
<ellipse cx="359" cy="288.5" rx="67" ry="67.5" fill="#C4C4C4"/>
<ellipse cx="230" cy="260.5" rx="20" ry="19.5" fill="#C4C4C4"/>
<ellipse cx="360" cy="162.5" rx="20" ry="19.5" fill="#C4C4C4"/>
<ellipse cx="284" cy="324.5" rx="20" ry="19.5" fill="#C4C4C4"/>
<circle cx="483" cy="312" r="12" fill="#C4C4C4"/>
<ellipse cx="250" cy="365.5" rx="9" ry="9.5" fill="#C4C4C4"/>
</svg>
